<?xml version="1.0" standalone="no"?>
<!DOCTYPE svg PUBLIC "-//W3C//DTD SVG 20010904//EN"
 "http://www.w3.org/TR/2001/REC-SVG-20010904/DTD/svg10.dtd">
<svg version="1.0" xmlns="http://www.w3.org/2000/svg"
 width="632.000000pt" height="632.000000pt" viewBox="0 0 632.000000 632.000000"
 preserveAspectRatio="xMidYMid meet">
<metadata>
Created by potrace 1.14, written by Peter Selinger 2001-2017
</metadata>
<g transform="translate(0.000000,632.000000) scale(0.100000,-0.100000)"
fill="#000000" stroke="none">
<path d="M2918 6315 c-2 -2 -37 -6 -78 -10 -41 -3 -86 -8 -100 -10 -14 -2 -45
-7 -70 -10 -25 -4 -85 -15 -135 -25 -49 -11 -101 -21 -115 -24 -14 -2 -65 -17
-115 -31 -49 -15 -99 -30 -110 -33 -55 -14 -291 -105 -370 -142 -80 -36 -255
-129 -310 -163 -101 -63 -299 -199 -315 -217 -3 -3 -18 -16 -35 -29 -181 -138
-439 -417 -573 -616 -26 -38 -49 -72 -52 -75 -28 -24 -197 -342 -255 -480 -29
-68 -111 -305 -120 -343 -2 -12 -13 -56 -24 -97 -11 -41 -23 -91 -26 -110 -3
-19 -10 -53 -15 -75 -5 -22 -12 -65 -15 -95 -4 -30 -9 -66 -11 -80 -26 -179
-26 -572 0 -780 50 -388 157 -745 334 -1110 25 -52 48 -97 51 -100 3 -3 19
-30 34 -60 36 -72 118 -204 129 -208 4 -2 8 -9 8 -15 0 -7 9 -23 20 -37 11
-14 52 -68 91 -120 132 -175 336 -392 400 -426 18 -9 61 -19 95 -22 51 -4 71
0 111 18 79 38 127 102 138 184 7 48 -10 146 -25 146 -5 0 -10 6 -12 14 -2 7
-56 68 -120 135 -64 67 -153 170 -197 229 -45 59 -85 112 -91 119 -5 7 -10 16
-10 21 0 5 -9 17 -20 27 -11 10 -20 22 -20 26 0 5 -16 34 -35 64 -33 51 -173
315 -176 333 -1 4 -6 18 -12 32 -6 14 -11 27 -12 30 -1 3 -7 19 -14 35 -6 17
-16 44 -22 60 -6 17 -15 39 -20 50 -12 28 -77 248 -90 304 -14 63 -18 81 -24
116 -3 17 -8 37 -10 45 -4 14 -12 67 -21 130 -3 24 -11 90 -19 175 -5 47 -5
331 -1 390 8 98 21 206 31 255 3 14 7 36 10 50 62 321 186 632 363 905 46 71
154 215 201 270 33 37 228 232 266 266 64 56 221 171 294 216 42 25 84 53 94
61 9 8 17 11 17 6 0 -5 4 -4 8 3 6 10 291 152 316 158 6 1 25 7 41 14 50 20
126 46 145 49 3 1 30 10 60 20 30 11 60 20 65 22 6 1 15 4 20 6 10 3 91 21
135 29 14 3 50 10 80 17 30 6 66 12 80 13 14 1 48 5 75 9 160 19 322 23 490
12 133 -9 197 -19 352 -51 62 -13 152 -36 200 -51 48 -15 90 -28 93 -29 25 -6
50 -18 50 -24 0 -4 -9 -33 -19 -64 -11 -31 -23 -73 -26 -94 -4 -21 -9 -51 -13
-68 -8 -39 -7 -267 1 -325 13 -88 49 -201 100 -310 48 -102 191 -279 303 -371
38 -33 164 -108 226 -137 66 -31 204 -69 285 -80 83 -12 328 -5 328 8 0 1 16
3 35 6 29 4 188 55 242 78 12 5 18 1 23 -16 4 -13 20 -50 35 -83 33 -73 90
-218 94 -237 2 -7 6 -20 9 -28 5 -13 38 -122 43 -142 1 -5 3 -10 4 -13 1 -3 3
-8 4 -12 8 -32 17 -72 21 -90 3 -13 8 -33 11 -45 3 -13 7 -36 10 -53 3 -16 7
-41 10 -55 3 -14 7 -36 9 -50 2 -14 6 -41 10 -60 27 -149 26 -636 -1 -761 -3
-13 -7 -37 -9 -54 -7 -57 -35 -190 -51 -245 -34 -112 -83 -257 -109 -319 -49
-118 -182 -370 -212 -399 -7 -7 -13 -17 -13 -22 0 -5 -6 -15 -13 -22 -6 -7
-24 -32 -39 -54 -67 -104 -250 -305 -394 -434 -162 -147 -443 -323 -674 -424
-190 -83 -510 -177 -654 -192 -23 -3 -47 -7 -55 -9 -23 -8 -142 -19 -218 -19
-40 -1 -73 -3 -73 -6 0 -9 -326 4 -377 15 -12 3 -41 7 -65 10 -157 19 -463
101 -583 155 -135 61 -166 72 -213 75 -166 10 -289 -142 -244 -300 26 -93 80
-136 262 -211 126 -52 380 -132 475 -149 11 -2 56 -11 99 -20 140 -27 148 -28
316 -43 105 -9 450 -8 540 1 152 16 188 22 360 57 302 62 647 192 920 347 61
35 145 87 150 93 3 4 12 9 20 12 20 7 209 148 290 216 197 165 410 400 541
597 29 44 56 81 61 83 4 2 8 8 8 13 0 5 17 37 38 71 147 241 284 588 347 877
3 11 7 31 10 44 17 78 35 197 52 342 15 140 8 594 -12 695 -3 14 -8 45 -11 70
-19 153 -84 422 -146 604 -65 195 -217 530 -281 620 -43 61 -107 109 -165 122
-33 7 -109 8 -138 1 -33 -8 -116 -48 -130 -62 -24 -24 -160 -84 -222 -99 -163
-38 -340 -1 -478 99 -60 44 -164 167 -164 194 0 6 -3 11 -8 11 -11 0 -41 75
-58 147 -18 78 -16 196 3 273 8 30 38 102 66 159 58 118 58 116 59 191 2 97
-61 203 -146 245 -98 49 -367 151 -419 159 -7 1 -16 4 -22 7 -12 7 -62 21 -90
25 -11 1 -49 10 -85 19 -35 9 -80 18 -100 21 -19 3 -42 7 -50 9 -25 7 -74 14
-210 31 -49 6 -526 14 -532 9z"/>
<path d="M3067 4563 c-2 -1 -28 -5 -59 -7 -297 -26 -592 -163 -803 -374 -80
-78 -165 -183 -165 -201 0 -6 -4 -11 -8 -11 -28 0 -177 -346 -196 -455 -3 -16
-8 -43 -12 -60 -16 -85 -21 -175 -19 -317 2 -86 5 -160 8 -165 3 -4 8 -28 11
-53 3 -25 8 -54 10 -65 8 -32 36 -139 42 -155 3 -8 5 -16 5 -17 0 -2 11 -28
24 -58 14 -31 25 -62 25 -70 0 -8 5 -15 10 -15 6 0 10 -5 10 -12 0 -34 136
-240 220 -332 188 -207 456 -361 715 -411 22 -5 47 -10 55 -11 130 -26 357
-21 511 11 84 17 262 76 267 87 2 5 10 8 18 8 14 0 96 42 167 86 131 83 277
222 359 343 18 25 34 48 38 51 3 3 11 16 18 30 7 14 22 43 35 65 26 47 95 207
102 240 2 6 8 30 15 55 7 25 14 54 16 65 2 11 6 31 9 45 15 74 19 129 19 265
1 158 -3 206 -29 340 -19 101 -71 252 -104 305 -104 164 -365 134 -426 -50
-16 -47 -14 -152 4 -174 7 -9 42 -103 46 -126 1 -3 7 -30 13 -60 69 -323 -17
-657 -224 -864 -73 -73 -120 -116 -127 -116 -3 0 -30 -15 -60 -34 -65 -38
-217 -91 -297 -102 -227 -31 -445 15 -620 131 -194 129 -329 330 -386 575 -22
96 -33 280 -20 350 3 14 7 43 11 64 7 52 33 143 51 183 8 17 14 34 14 38 0 10
80 145 104 174 85 104 198 195 306 244 69 32 178 65 239 73 71 9 240 8 296 -1
105 -18 187 4 243 64 132 141 62 357 -128 400 -83 18 -342 36 -353 24z"/>
</g>
</svg>
